<?xml version="1.0" encoding="UTF-8" standalone="no"?>
<svg
   width="182.168"
   height="178.877"
   viewBox="0 0 182.168 178.877"
   fill="none"
   version="1.1"
   id="svg1"
   sodipodi:docname="cta_ring.svg"
   inkscape:export-filename="cta_ring.svg"
   inkscape:export-xdpi="96"
   inkscape:export-ydpi="96"
   inkscape:version="1.3 (0e150ed6c4, 2023-07-21)"
   xmlns:inkscape="http://www.inkscape.org/namespaces/inkscape"
   xmlns:sodipodi="http://sodipodi.sourceforge.net/DTD/sodipodi-0.dtd"
   xmlns="http://www.w3.org/2000/svg"
   xmlns:svg="http://www.w3.org/2000/svg">
  <defs
     id="defs1" />
  <sodipodi:namedview
     id="namedview1"
     pagecolor="#505050"
     bordercolor="#eeeeee"
     borderopacity="1"
     inkscape:showpageshadow="0"
     inkscape:pageopacity="0"
     inkscape:pagecheckerboard="0"
     inkscape:deskcolor="#505050"
     inkscape:zoom="5.759434"
     inkscape:cx="110.51433"
     inkscape:cy="64.329238"
     inkscape:window-width="2498"
     inkscape:window-height="1417"
     inkscape:window-x="1912"
     inkscape:window-y="-8"
     inkscape:window-maximized="1"
     inkscape:current-layer="svg1" />
  <g
     id="Group 10"
     transform="translate(-18.989146,-16.482029)">
    <path
       id="Oval"
       d="m 124.904,116.341 c 10.814,-15.445 23.745,-27.1988 35.887,-33.7278 12.17,-6.5444 23.401,-7.7715 30.967,-2.4731 7.567,5.2984 10.255,16.271 8.268,29.9459 -1.983,13.643 -8.605,29.813 -19.42,45.258 -10.814,15.445 -23.744,27.199 -35.886,33.728 -12.171,6.544 -23.401,7.771 -30.968,2.473 -7.567,-5.299 -10.255,-16.271 -8.268,-29.946 1.983,-13.643 8.606,-29.814 19.42,-45.258 z"
       stroke="#44ffa1" />
    <path
       id="Oval Copy"
       d="m 103.606,101.428 c 10.815,-15.4448 23.745,-27.1987 35.887,-33.7278 12.17,-6.5443 23.401,-7.7714 30.967,-2.4731 7.567,5.2984 10.255,16.271 8.268,29.9459 -1.982,13.643 -8.605,29.813 -19.42,45.258 -10.814,15.445 -23.744,27.199 -35.886,33.728 -12.171,6.544 -23.401,7.771 -30.9679,2.473 -7.5669,-5.299 -10.2548,-16.271 -8.2676,-29.946 1.9824,-13.643 8.6051,-29.813 19.4195,-45.258 z"
       stroke="#44ffa1" />
    <path
       id="Oval Copy 2"
       opacity="0.75"
       d="m 83.1273,87.0884 c 10.815,-15.4455 23.7007,-27.2321 35.7697,-33.813 12.099,-6.5975 23.224,-7.8915 30.675,-2.6745 7.451,5.217 10.04,16.1139 7.978,29.7401 -2.056,13.5921 -8.725,29.732 -19.54,45.177 -10.815,15.446 -23.7,27.232 -35.769,33.813 -12.0994,6.598 -23.2247,7.892 -30.6753,2.675 -7.4506,-5.217 -10.0398,-16.114 -7.9784,-29.741 2.0562,-13.592 8.7249,-29.731 19.54,-45.1766 z"
       stroke="#44ffa1" />
    <path
       id="Oval Copy 3"
       opacity="0.5"
       d="M 61.0102,71.6019 C 71.8246,56.1572 84.7549,44.4033 96.897,37.8742 c 12.171,-6.5443 23.401,-7.7714 30.968,-2.4731 7.566,5.2984 10.254,16.271 8.267,29.9459 -1.982,13.6428 -8.605,29.8134 -19.419,45.258 -10.815,15.445 -23.7453,27.199 -35.8873,33.728 -12.1706,6.544 -23.4007,7.771 -30.9676,2.473 -7.5668,-5.299 -10.2547,-16.271 -8.2675,-29.946 1.9824,-13.643 8.6051,-29.8135 19.4196,-45.2581 z"
       stroke="#44ffa1" />
    <path
       id="Oval Copy 4"
       opacity="0.25"
       d="M 39.7122,56.6889 C 50.5273,41.2434 63.4126,29.4568 75.4816,22.8758 c 12.0995,-6.5974 23.2248,-7.8914 30.6754,-2.6744 7.451,5.2169 10.04,16.1139 7.978,29.7401 -2.056,13.592 -8.725,29.7315 -19.5396,45.177 -10.815,15.4455 -23.7004,27.2325 -35.7694,33.8135 -12.0994,6.597 -23.2248,7.891 -30.6754,2.674 -7.4506,-5.217 -10.0398,-16.114 -7.9784,-29.74 2.0562,-13.5921 8.725,-29.7316 19.54,-45.1771 z"
       stroke="#44ffa1" />
  </g>
</svg>
