<?xml version="1.0" encoding="UTF-8" standalone="no"?>
<svg
   width="172.259"
   height="272.565"
   viewBox="0 0 172.259 272.565"
   fill="none"
   version="1.1"
   id="svg5"
   sodipodi:docname="left-ring - Copy.svg"
   inkscape:version="1.3 (0e150ed6c4, 2023-07-21)"
   inkscape:export-filename="left-ring - Copy.svg"
   inkscape:export-xdpi="96"
   inkscape:export-ydpi="96"
   xmlns:inkscape="http://www.inkscape.org/namespaces/inkscape"
   xmlns:sodipodi="http://sodipodi.sourceforge.net/DTD/sodipodi-0.dtd"
   xmlns="http://www.w3.org/2000/svg"
   xmlns:svg="http://www.w3.org/2000/svg">
  <sodipodi:namedview
     id="namedview5"
     pagecolor="#505050"
     bordercolor="#eeeeee"
     borderopacity="1"
     inkscape:showpageshadow="0"
     inkscape:pageopacity="0"
     inkscape:pagecheckerboard="0"
     inkscape:deskcolor="#505050"
     inkscape:zoom="3.851735"
     inkscape:cx="101.12326"
     inkscape:cy="137.73014"
     inkscape:window-width="2498"
     inkscape:window-height="1417"
     inkscape:window-x="1912"
     inkscape:window-y="-8"
     inkscape:window-maximized="1"
     inkscape:current-layer="svg5" />
  <g
     clip-path="url(#clip0_6_72)"
     id="g5"
     transform="translate(-9.6642101e-8,-22.277997)">
    <path
       d="m 55.7623,171.883 c 13.8427,-26.034 31.6899,-46.75 49.3317,-59.205 17.669,-12.473 34.994,-16.5769 47.905,-9.712 12.911,6.865 19.197,23.522 18.736,45.145 -0.46,21.591 -7.655,47.971 -21.497,74.006 -13.843,26.034 -31.69,46.75 -49.333,59.205 -17.668,12.473 -34.9927,16.577 -47.9038,9.712 -12.911,-6.865 -19.197,-23.522 -18.736,-45.145 0.4602,-21.591 7.6543,-47.971 21.4971,-74.006 z"
       stroke="#44ffa1"
       id="path1" />
    <path
       d="m 19.7623,152.883 c 13.8427,-26.034 31.6899,-46.75 49.3322,-59.2049 17.6685,-12.4736 34.9935,-16.577 47.9045,-9.712 12.911,6.8649 19.197,23.5219 18.736,45.1449 -0.46,21.591 -7.655,47.971 -21.497,74.006 -13.843,26.034 -31.6902,46.75 -49.3326,59.205 C 47.237,274.795 29.9123,278.899 17.0012,272.034 4.09015,265.169 -2.19576,248.512 -1.73483,226.889 -1.27459,205.298 5.91953,178.918 19.7623,152.883 Z"
       stroke="#44ffa1"
       id="path2" />
    <path
       opacity="0.75"
       d="M -14.3548,134.353 C -0.511414,108.317 17.2379,87.548 34.7219,75.0079 52.2342,62.4474 69.3358,58.2331 81.9987,64.9661 c 12.6629,6.733 18.7323,23.2674 18.1123,44.8099 -0.6198,21.507 -7.9129,47.836 -21.7563,73.871 -13.8433,26.036 -31.5927,46.805 -49.0766,59.345 -17.5123,12.561 -34.61391,16.775 -47.2768,10.042 -12.663,-6.733 -18.7322,-23.268 -18.1119,-44.81 0.6194,-21.507 7.9125,-47.836 21.7558,-73.871 z"
       stroke="#44ffa1"
       id="path3" />
    <path
       opacity="0.5"
       d="M -51.2377,113.883 C -37.395,87.8488 -19.5478,67.1331 -1.9055,54.6781 15.763,42.2045 33.0876,38.1011 45.9987,44.9661 c 12.9111,6.8649 19.197,23.5223 18.7361,45.1452 -0.4603,21.5907 -7.6544,47.9707 -21.4971,74.0057 -13.8428,26.034 -31.6899,46.75 -49.33224,59.205 -17.66846,12.473 -34.99316,16.577 -47.90426,9.712 -12.911,-6.865 -19.197,-23.522 -18.736,-45.145 0.4602,-21.591 7.6543,-47.971 21.4971,-74.006 z"
       stroke="#44ffa1"
       id="path4" />
    <path
       opacity="0.25"
       d="M -87.3548,95.3527 C -73.5114,69.3172 -55.7621,48.548 -38.2781,36.0079 -20.7658,23.4474 -3.66423,19.2331 8.9987,25.9661 21.6616,32.6991 27.7309,49.2335 27.1105,70.7756 26.4912,92.2829 19.1981,118.612 5.35473,144.647 -8.48862,170.683 -26.238,191.452 -43.7219,203.992 c -17.5123,12.561 -34.6139,16.775 -47.2768,10.042 -12.6633,-6.733 -18.7323,-23.268 -18.1123,-44.81 0.62,-21.507 7.913,-47.836 21.7562,-73.8713 z"
       stroke="#44ffa1"
       id="path5" />
  </g>
  <defs
     id="defs5">
    <clipPath
       id="clip0_6_72">
      <rect
         width="202"
         height="317"
         fill="#ffffff"
         id="rect5"
         x="0"
         y="0" />
    </clipPath>
  </defs>
</svg>
