<?xml version="1.0" encoding="UTF-8" standalone="no"?>
<!-- Created with Inkscape (http://www.inkscape.org/) -->

<svg
   width="244.99998"
   height="175"
   viewBox="0 0 64.822913 46.302083"
   version="1.1"
   id="svg6454"
   xmlns="http://www.w3.org/2000/svg"
   xmlns:svg="http://www.w3.org/2000/svg">
  <defs
     id="defs6451" />
  <g
     id="layer1">
    <path
       id="path1745"
       style="fill:#ffffff;fill-opacity:1;stroke:#000000;stroke-width:0.394158;stroke-dasharray:none;stroke-opacity:1"
       d="m 60.371193,9.7141406 -2.314343,2.5456994 4e-6,0.508068 2.571832,2.336633 2.566443,-2.823952 z m -5.154428,-0.254417 -2.566454,2.8239414 2.823947,2.566458 1.697132,-1.867002 3e-6,-1.747859 z m -33.246601,12.3416334 3e-6,2.039166 7e-6,8.027572 h 3.360445 l -4e-6,-3.933073 h -2.304349 l 0.02921,-6.129054 z m -0.886222,0.003 -4.656361,0.01041 -4.460349,1.080696 -8.11e-4,-0.05462 c -0.0016,1.719572 -0.0057,3.37423 -0.0092,5.095245 l -7.66e-4,3e-6 -4.2274582,10e-7 -7e-6,3.933064 13.3549332,3e-6 z m -4.05529,2.099891 0.04766,2.999956 -3.190578,2e-6 -3e-6,-2.23748 z m -13.5009652,3.993253 -2.92156605,3.971277 6.23666205,4e-6 -4e-6,-3.933073 z m 39.7845492,-11.201118 -4.495708,1.123739 -3e-6,2.248235 8e-6,7.866924 -1.544184,0.003 5e-6,3.929535 1.544177,10e-7 c 1.499478,2.23e-4 2.998949,2.34e-4 4.498425,-9.13e-4 -0.0068,-4.120284 -0.0027,-8.24062 -0.0027,-12.360914 z m -6.926107,1.731727 -4.312013,1.078385 -5e-6,0.561862 6e-6,7.866924 -2.217332,-2.56e-4 c -0.04901,-2.621918 -0.03091,-5.244409 -0.03091,-7.866667 l -4.494941,1.123738 4e-6,6.743186 -1.123742,-4e-6 4e-6,3.933073 4.438831,-2e-6 3.428092,5e-6 3.315088,-6e-6 0.99691,-3e-6 z M 50.055245,0.40078163 45.559869,1.5246216 c 0.05817,10.1055394 -0.09167,20.2128064 0.02584,30.3179484 2.238889,0.03793 4.478128,0.02528 6.717238,0.02528 l -6e-6,-3.933447 c -0.74989,0.003 -1.499535,0.0045 -2.249193,-0.01339 0.0034,-9.173682 0.0015,-18.3473644 0.0015,-27.52104337 z m 8.001288,15.17316637 -4e-6,3.940757 2.123723,3e-6 6e-6,2.199814 h -1.969996 c -0.04998,0.01339 -0.101232,0.02383 -0.153723,0.03004 l 6e-6,3.939994 1.501131,-0.04001 0.04998,2.290512 H 58.05656 l 4e-6,3.933073 4.135992,-2e-6 2.112195,-0.01621 -0.0015,-1.402756 -0.03005,-4.312768 -0.01041,-10.530988 -6.204371,-0.03152 z m -5.683245,0.04151 -0.05996,10.014455 4.857738,0.01532 10e-7,-3.93078 -1.841633,2e-6 5e-6,-2.199801 1.841631,-1e-6 -3e-6,-3.894593 z m -1.19445,12.31958 5e-6,3.933075 h 5.992232 l -5e-6,-3.933073 z m 0.207516,7.626637 2.073718,7e-6 3.747225,3.528936 -4e-6,2.746734 -3.528937,-3.328835 -3e-6,7.512634 -2.29199,2e-6 z m 12.533202,2e-6 -2.055517,2e-6 -3.765413,3.528942 -6e-6,2.746734 3.528941,-3.328838 9e-6,7.512645 2.29199,-3e-6 z m -18.099455,-1e-6 2.292002,7e-6 -7e-6,10.459473 -2.291991,3e-6 z M 30.558377,36.81681 c 0.691234,-0.418371 1.382466,-0.836762 2.073701,-1.255131 1.249077,1e-6 2.498153,3e-6 3.74723,4e-6 -1e-5,0.715488 0,1.430976 -9e-6,2.146462 -1.200564,4e-6 -2.401127,7e-6 -3.601702,0 0,0.685178 0,1.370335 0,2.055512 1.200575,7e-6 2.401138,4e-6 3.601702,10e-7 5e-6,0.709434 8e-6,1.418848 2e-6,2.128271 -1.249076,-2e-6 -2.498152,-3e-6 -3.747217,6e-6 -0.691243,-0.412325 -1.382481,-0.82463 -2.073712,-1.236945 2e-6,-1.279393 3e-6,-2.558787 5e-6,-3.83818 z m 12.533193,4.201997 c -0.715493,-0.41839 -1.430985,-0.836763 -2.146469,-1.255143 -1.249076,-10e-7 -2.498153,-10e-7 -3.74723,-3e-6 6e-6,0.709434 -10e-7,1.418837 5e-6,2.128271 1.200563,-3e-6 2.401125,-6e-6 3.601702,0 -5e-6,0.691241 1e-6,1.382473 -2e-6,2.073715 -1.176318,-5e-6 -2.352625,0 -3.528943,-3e-6 0,0.685177 -2e-6,1.370333 0,2.055512 1.224819,-2e-6 2.44964,-3e-6 3.67446,-5e-6 0.715496,-0.412313 1.430984,-0.824618 2.14648,-1.236931 -6e-6,-1.255147 -8e-6,-2.510276 -3e-6,-3.765413 z m -10.241207,1.691672 c 10e-7,0.41839 3e-6,0.83676 -6e-6,1.255138 1.176318,5e-6 2.352637,9e-6 3.528945,3e-6 0,0.685179 -1e-6,1.370335 -1e-6,2.055514 -1.230887,-3e-6 -2.461763,4e-6 -3.692649,10e-7 -0.709431,-0.412323 -1.41886,-0.824627 -2.12828,-1.23694 3e-6,-0.691241 -10e-7,-1.382473 0,-2.073713 0.763994,-5e-6 1.527998,1e-6 2.291991,-3e-6 z M 43.091571,38.94507 c -7e-6,-0.709432 -1e-6,-1.418856 -6e-6,-2.12829 -0.715491,-0.418371 -1.430974,-0.836751 -2.146466,-1.255122 -1.249077,-1e-6 -2.498152,-3e-6 -3.747229,-4e-6 10e-7,0.715498 0,1.430976 3e-6,2.146473 1.200564,-4e-6 2.401137,5e-6 3.601702,0 -5e-6,0.412315 -2e-6,0.824621 4e-6,1.236946 0.763994,-4e-6 1.527986,-7e-6 2.291992,-3e-6 z m -27.794937,-2.128284 2.073701,-1.255129 3.74723,3e-6 v 2.055513 l -3.528944,-4e-6 1e-6,2.146473 3.528934,-7e-6 9e-6,2.073706 -3.528944,-5e-6 4e-6,4.183804 -2.292002,-9e-6 z m 12.533188,-6e-6 -2.146466,-1.255123 -3.74723,-3e-6 2e-6,2.055511 3.601701,10e-7 3e-6,2.146472 h -3.601703 l -1e-6,2.073695 h 3.601702 l 4e-6,4.183802 2.291991,-10e-7 z m -26.84902925,0 2.12828095,-1.255122 3.7654191,3e-6 v 2.055512 H 3.2727907 l -8e-6,6.275689 3.5289441,2e-6 3e-6,2.128271 -3.6926621,-4e-6 -2.12827795,-1.236942 z m 12.53319925,5e-6 -3e-6,7.967409 -2.055521,1.236935 v 0 0 0 l -3.7654072,8e-6 -3e-6,-2.128271 h 1.546187 l -1.546198,-1.473429 1.47343,-1.400651 2.0555122,2.055515 3e-6,-5.457123 -3.5289452,-2e-6 v -2.055513 l 3.7654192,3e-6 z" />
  </g>
</svg>
